<?xml version="1.0" encoding="UTF-8" standalone="no"?>
<svg width="150px" height="150px" viewBox="0 0 150 150" version="1.1" xmlns="http://www.w3.org/2000/svg" xmlns:xlink="http://www.w3.org/1999/xlink">
    <!-- Generator: Sketch 39.1 (31720) - http://www.bohemiancoding.com/sketch -->
    <title>CLE</title>
    <desc>Created with Sketch.</desc>
    <defs></defs>
    <g id="Page-1" stroke="none" stroke-width="1" fill="none" fill-rule="evenodd">
        <g id="CLE">
            <g id="Page-1">
                <g id="Group-3" transform="translate(36.000000, 0.068622)" fill="#FEFEFE">
                    <path d="M33.448497,81.9759835 L33.3418373,92.9971981 C27.8266395,94.6248785 24.5379639,95.1216093 22.1114546,94.6426189 C22.3647715,90.7929552 28.7288032,82.2066085 33.4840503,76.9465841 L33.4440529,81.81632 C33.4440529,81.8695412 33.4440529,81.9227623 33.448497,81.9759835 M75.8279703,55.1303447 L74.4725027,53.7554648 C67.9840347,47.5906808 58.4335431,45.9807407 46.0565681,48.9433852 L46.0699006,24.6967129 C46.0921214,21.2284675 46.1054538,17.9464961 45.8343603,14.8241882 C45.4610512,10.7616399 44.6477706,7.57724064 43.2745264,4.79643517 L41.443534,1.08425945 C41.1768846,0.543177683 40.6524742,0.170629582 40.021404,0.214980546 C39.4214429,0.228285835 38.8792559,0.578658454 38.6348273,1.12861041 L36.9149389,4.89400729 C35.5461388,7.88769739 34.7195257,11.178539 34.3106633,15.2499575 C33.9951283,18.492013 33.9773516,21.8316406 33.959575,25.3664125 L33.7151464,53.0813302 C22.462543,57.8268833 12.4276383,64.4839631 7.15686911,68.8303576 C7.03687689,68.9323648 6.93021714,69.0476773 6.84133402,69.1851653 L0.779504993,78.5476539 C0.432860812,79.0843006 0.450637436,79.7717405 0.819502399,80.2906468 C1.19281152,80.8095531 1.84165832,81.0446132 2.45939603,80.898255 L5.84139888,80.0644569 C-3.08691088,93.3786164 0.757284212,102.151237 1.20169983,103.033821 C2.61938565,106.998798 5.78362485,109.979182 10.6055343,111.904014 C13.6453371,113.114796 17.3473192,113.611526 21.893691,113.394207 C24.6490678,113.265589 27.6177641,112.822079 30.7597826,112.059243 C28.1777278,114.290096 26.106751,117.257176 24.853499,120.596803 C24.1690989,122.472849 23.7646807,124.424292 23.6491327,126.699496 C23.6446885,127.143006 23.6358002,127.998979 23.5513612,129.090013 C23.4224807,130.677778 23.1691638,132.141359 22.7958547,133.445278 L21.6003767,136.52767 C21.4714961,136.833691 21.4448312,137.175194 21.524826,137.498956 C21.6270416,137.92916 21.9692416,138.359365 22.3558832,138.567814 C22.8402963,138.829485 23.4535898,139.153247 27.528881,137.658619 C27.7733096,137.578788 28.1421746,137.4413 28.608811,137.175194 C29.5109747,136.674028 30.4664683,135.937802 31.4441826,135.001997 C32.1285827,134.341167 32.7374321,133.587201 33.2529542,132.899761 L33.2796191,139.08672 C33.1374061,139.31291 32.9818606,139.570146 32.8129827,139.867297 C32.2441307,140.927285 30.7420059,144.506408 30.5686838,146.688476 C30.5331306,147.131985 30.7464501,147.726288 31.057541,148.05005 C31.5641748,148.568957 32.2263541,148.715315 33.390723,148.715315 C33.9862399,148.715315 34.7150816,148.679834 35.6216894,148.631048 C35.8927829,148.604437 36.2394271,148.577827 36.634957,148.520171 C37.4660142,148.409293 38.7503754,148.187538 40.1369521,147.757334 C44.2966823,146.475591 46.8342954,144.018548 47.2831552,140.829713 L47.447589,139.596756 C47.4520332,139.574581 47.4564773,139.552406 47.4564773,139.53023 C52.1006205,135.041912 52.9272336,130.32297 52.7716881,127.076479 C52.7494673,126.628534 52.7050258,126.176155 52.6472517,125.71934 L53.962722,125.958835 C54.3671402,126.025361 54.789335,125.936659 55.1270909,125.697164 C55.4692909,125.462104 55.6959429,125.102861 55.7670494,124.694832 L56.1092494,122.75226 C56.7358754,119.111046 56.011478,115.63393 54.0693817,112.959567 C52.2428335,110.453738 49.4874567,108.755096 46.0432356,107.996694 L46.0432356,106.43554 C52.9938959,103.029386 59.7801224,98.5854197 65.4641981,93.6535924 C65.7308475,93.4274025 65.9086138,93.1169457 65.9752761,92.7798784 L68.1706892,81.7764041 C68.2906815,81.1821012 68.050697,80.5789281 67.5618399,80.2196853 C67.0729827,79.8693127 66.4241359,79.8249617 65.8908371,80.1176781 L61.7355511,82.4194931 C55.6381688,85.0894212 50.1096385,87.2315728 46.0565681,88.7217652 L46.0565681,66.9454416 C47.105389,66.364444 48.1097683,65.8721483 49.0474852,65.4774247 C50.6607139,64.798855 51.8739686,64.3686506 52.7716881,64.0981097 C52.6650284,64.3198645 52.5494803,64.5460545 52.4294881,64.7766795 C52.4294881,64.7766795 46.8876253,75.6958869 46.594311,76.2369687 C46.2565551,76.8534471 46.3721032,77.629589 46.878737,78.1130145 C47.8431189,79.0222092 47.8475631,79.0177742 75.5035469,62.9183741 C75.9790717,62.6433981 76.2768301,62.1289269 76.2768301,61.5789749 L76.2768301,56.2169433 C76.2768301,55.8133496 76.1168405,55.4230611 75.8279703,55.1303447" id="Fill-1"></path>
                </g>
                <path d="M69.0583001,75.1812941 C69.6715937,74.5204647 70.364882,73.8507652 71.075947,73.1766305 L70.9959522,81.8960301 L71.0048405,81.8871599 L70.8892925,94.2255982 C63.6230971,96.4342763 60.1610995,96.8023893 57.6857045,96.2258267 L57.3746135,96.1371248 C56.6724369,95.8577137 56.5524447,95.2234949 56.5480005,95.0549613 C56.4324524,90.1852254 64.8319076,79.7095276 69.0583001,75.1812941 M83.9551116,77.0529048 C83.8217869,77.3057053 110.71782,61.6453798 110.71782,61.6453798 L110.71782,56.2877832 L109.40235,54.9483841 C102.180596,48.091725 91.4168499,48.042939 80.5020023,51.0144536 L80.5108906,25.4771683 C80.5331114,21.7960382 80.5686646,18.292312 80.2842386,15.0369512 C79.9775919,11.7061938 79.3243009,8.48187869 77.8799501,5.55027994 L76.0489578,1.83810421 L74.3290694,5.60350109 C72.8891628,8.76128976 72.2003185,12.0787419 71.8581185,15.4715907 C71.529251,18.797913 71.529251,22.2883339 71.5159185,25.969464 L71.2581574,54.1899826 C60.0099982,58.7936127 49.6684467,65.5438295 44.1488048,70.0942385 L38.0869757,79.4611622 L45.6242646,77.6028568 C34.0561261,92.1056221 38.1847472,101.596729 38.6691602,102.576885 C39.8913031,105.996344 42.6689008,108.732799 47.1841634,110.529013 C50.6061637,111.895022 54.4903562,112.067991 57.8190292,111.912763 C61.9876477,111.717619 66.3651415,110.790683 70.7515236,109.393628 L70.733747,111.243063 C66.9695467,113.292078 63.9297439,116.884506 62.3165152,121.19542 C61.6943333,122.889627 61.3121359,124.694711 61.2099203,126.553016 C61.201032,126.859038 61.2099203,127.883545 61.0988164,129.285036 C60.9921567,130.602259 60.7699489,132.260985 60.28998,133.937452 L60.0188865,134.877692 L59.036728,137.201683 C59.1344994,137.600841 61.8232139,136.700517 63.0320244,136.257007 C63.2142348,136.199351 63.4897724,136.092909 63.8453049,135.893329 C64.4941517,135.529651 65.3340973,134.939784 66.3606973,133.950757 C66.9873234,133.352019 67.5428429,132.664579 68.0183676,132.025925 C68.4716715,131.422752 68.8894222,130.815144 69.2582872,130.305108 C69.7871417,129.582187 70.2848872,128.850396 70.7781886,128.158521 L70.8137418,134.385397 L70.8359626,138.523342 L70.8359626,139.632116 C70.649308,139.898221 70.4226561,140.244159 70.1826716,140.674363 C69.6271521,141.703306 68.2627962,145.025193 68.116139,146.883498 C68.0805858,147.331443 69.4005002,147.264917 71.3203756,147.162909 C71.587025,147.140734 71.9647783,147.114123 72.4269705,147.052032 C73.2980251,146.936719 74.4801707,146.714965 75.6800928,146.342417 C77.8266203,145.681587 81.2575088,144.138174 81.7419219,140.692104 L81.9107998,139.459147 L81.5641556,139.232957 C86.1594131,135.219195 87.3904444,130.850625 87.2171223,127.222716 C87.1593482,125.980889 86.9326963,124.845504 86.6482703,123.878653 L88.3014964,124.153629 L90.2391485,124.495131 L90.5769043,122.556994 C91.7190525,115.93983 87.9637405,110.435876 80.4886698,109.362582 L80.4886698,105.530659 C87.8304158,102.035803 94.7544111,97.4853941 100.189614,92.7664515 L100.451819,92.5446967 L102.642788,81.5412224 L98.363066,83.9095639 C91.4746239,86.9254295 85.2216961,89.3159465 80.5020023,91.0101533 L80.5020023,66.115957 C81.8396933,65.3309449 83.1729401,64.64794 84.4439688,64.1157285 C87.9548522,62.6432765 90.2213718,62.0534086 91.2746369,62.1687211 C90.9902109,63.0646106 90.5191303,64.18669 89.8169536,65.5482646 C89.8169536,65.5482646 84.1995402,76.6093952 83.9551116,77.0529048" id="Fill-4" fill="#FCB424"></path>
                <path d="M65.714517,124.667657 C65.9633898,124.091094 66.2389275,123.545577 66.5366859,123.031106 C68.6343276,119.394327 71.8385642,117.127993 74.6294943,115.735372 C74.109528,115.61119 73.7006657,115.349519 73.482902,115.003582 C70.3853252,116.675613 66.7188963,119.868882 65.714517,124.667657" id="Fill-6" fill="#FEFEFE"></path>
                <path d="M109.15481,60.7650131 L109.105925,57.310073 L91.4670688,68.0784871 C91.3337441,68.3978141 89.0361154,72.8240403 88.8139076,73.036925 L109.15481,60.7650131 Z" id="Fill-8" fill="#081E3F"></path>
                <path d="M42.8813314,76.4550538 C44.8234277,75.9760634 46.99662,75.4349816 49.1475916,74.9205104 C50.3741787,73.4879743 51.5607684,72.2195367 52.6184776,71.1551135 C50.4186203,71.6562794 47.9832227,72.2151016 45.6055992,72.7606185 C45.1567394,73.3637916 43.1524249,76.095811 42.8813314,76.4550538" id="Fill-10" fill="#081E3F"></path>
                <path d="M78.7132294,101.179386 C77.8021774,101.622896 76.8777929,102.04423 75.9445201,102.447824 C75.3578915,102.709494 74.7712629,102.96673 74.1846343,103.206225 C73.7757719,103.374759 73.3624654,103.521117 72.9580472,103.676345 C67.3850753,105.836237 61.7454411,107.255468 56.505781,107.499398 C53.2837678,107.650192 49.7239987,107.455047 46.6975283,106.253136 C43.9154866,105.144362 41.9689462,103.698521 40.684585,102.030924 C41.6667435,104.8206 43.9599281,107.215552 48.1018817,108.860973 C51.1416845,110.067319 54.6881211,110.253593 57.9145785,110.1028 C62.7053789,109.881045 67.8294909,108.674699 72.9358264,106.825264 C73.3446888,106.678906 73.7535511,106.536982 74.1624135,106.386189 C74.7534863,106.155564 75.344559,105.907199 75.940076,105.658833 C76.8689046,105.277415 77.7977333,104.878256 78.7132294,104.452487 C86.2727391,100.988677 93.4767162,96.30965 99.0941296,91.4354791 L100.138506,86.6012239 C94.5610903,91.9455151 86.8949209,97.2454554 78.7132294,101.179386" id="Fill-12" fill="#081E3F"></path>
                <path d="M78.728784,60.3760551 C87.1726807,55.7679899 98.5230556,53.3641677 91.7546057,66.5896253 L108.229093,56.5130861 C101.118443,49.7628694 89.94139,50.2640353 78.728784,53.7677614 L78.728784,54.1713552 L78.728784,60.3760551 Z" id="Fill-14" fill="#73243C"></path>
                <path d="M78.7216733,93.9359864 C77.6817408,94.2996643 76.7618004,94.6101211 75.9574082,94.8762269 C75.2907848,95.1024168 74.7130445,95.2931259 74.2241873,95.4527894 C73.7397742,95.6035827 73.3264677,95.7366356 73.0331534,95.8253375 C72.6198469,95.9583904 72.3931949,96.0293519 72.3931949,96.0293519 C41.4174264,105.657946 51.3234505,85.5669594 65.4736438,70.5275474 C66.704675,69.2191939 69.8644701,66.2521144 73.3220236,63.7329796 L73.3975742,55.6477988 C62.1760799,60.0429794 51.5634349,66.8242419 45.7104812,71.658497 C49.2435854,70.6739056 52.8522402,69.9021988 56.4297859,69.0861411 C25.6584486,98.4509146 43.483959,113.969317 72.9753794,102.189701 C73.3753534,102.030037 73.78866,101.834893 74.188634,101.670795 C74.7708185,101.422429 75.3574471,101.187369 75.9485199,100.916828 C76.8595719,100.508799 77.7884005,100.05642 78.712785,99.5951695 C85.3034686,96.3265034 92.3074588,91.8071401 99.3869995,85.8375003 C91.0719833,89.4831496 83.663575,92.2240392 78.7216733,93.9359864" id="Fill-16" fill="#73243C"></path>
                <polygon id="Fill-18" fill="#081E3F" points="74.3152925 79.4462488 74.3152925 79.4552849 74.3243471 79.4552849 74.3243471 79.4372126"></polygon>
                <path d="M82.4596531,59.8540443 C81.3352816,60.3285996 80.1398036,60.9406429 78.731006,61.7522656 L78.731006,60.3773857 L78.731006,54.1726858 L78.731006,53.769092 L78.7354502,25.6195349 C78.7754476,18.3947627 78.9043281,11.8396902 76.3089409,6.56636053 C73.6557797,12.3719018 73.7002213,18.9092339 73.6735563,26.1295709 L73.3980186,55.6495729 L73.322468,63.7347537 L73.322468,63.9210277 L73.3091355,65.2914725 C70.7226366,67.2207395 68.3005715,69.3495858 66.3984727,71.3897301 C62.4209529,75.6651631 53.2259938,86.8016903 53.3726509,92.6471474 C53.40376,94.1772557 53.9415029,95.2549841 54.8347783,95.9734697 C54.8081134,95.7428447 54.7814484,95.5077846 54.7770043,95.2549841 C54.6303471,89.4050919 63.8297504,78.2729998 67.8117143,74.002002 C69.3538365,72.3432759 71.2381587,70.6224585 73.2780264,68.9947781 L73.1713667,80.3885408 L73.1713667,80.4018461 L73.0513745,93.7692268 C73.380242,93.6627845 73.7891044,93.5297316 74.2379642,93.3833734 L74.3135148,79.4438653 L74.3135148,79.4394302 L74.375733,68.1609799 L74.3979538,64.4975903 L74.4023979,62.9896575 L74.4468395,55.2770248 L74.5623876,35.4920595 L74.6290499,20.1510609 C74.9179201,20.6877076 75.9934058,22.820989 76.0867331,30.3695231 L76.0378474,54.7182026 L76.0289591,61.9296694 L76.0245149,63.3710758 L76.0156266,66.9590688 L76.0022942,78.0379397 L76.0022942,78.0423748 L75.9934058,78.0645503 L75.9578526,92.8068109 C76.7755773,92.53627 77.6999618,92.216943 78.7221177,91.8621353 L78.7265619,75.7671703 L78.7265619,75.7627352 L78.731006,65.1850302 C80.6286607,64.023035 82.2952193,63.1227104 83.8684506,62.461881 C87.5259911,60.9229025 90.6546771,59.9516164 92.3790097,60.5060035 C92.6412149,56.4168446 88.2015029,57.4413518 82.4596531,59.8540443" id="Fill-20" fill="#081E3F"></path>
                <polygon id="Fill-22" fill="#FCB424" points="75.9920726 78.0862249 76.0101818 78.0410443 76.0101818 78.0410443 75.9920726 78.0410443"></polygon>
                <path d="M76.0369586,54.7186461 L76.0858443,30.3699667 L76.0369586,54.7186461 Z" id="Fill-24" fill="#FCB424"></path>
                <polygon id="Fill-26" fill="#FCB424" points="75.9920726 78.0465323 76.0101818 78.0374962 76.0101818 78.0374962"></polygon>
                <path d="M76.0231817,63.3737368 L76.0322363,63.3693017 L76.0322363,61.9278954 L76.0322363,61.9323305 L76.0231817,63.3737368 Z" id="Fill-28" fill="#FCB424"></path>
                <polygon id="Fill-30" fill="#FCB424" points="75.9920726 78.0406008 76.0101818 78.0361657 76.0464001 66.9572948 76.028291 66.9617299"></polygon>
                <polygon id="Fill-32" fill="#FCB424" points="76.037013 63.3737368 76.0098492 66.9617299 76.0279584 66.9572948 76.0460676 63.3693017"></polygon>
                <path d="M76.0258482,61.9305565 L76.0349028,61.9305565 L76.053012,54.7190896 L76.0258482,61.9305565 Z" id="Fill-34" fill="#FCB424"></path>
                <path d="M87.4139984,120.666756 C80.8366472,118.879412 73.1438129,120.489352 69.6418178,124.715999 C68.1974671,126.450122 66.8997735,129.013608 64.3443837,131.639185 C64.8865707,128.472526 64.8599058,127.443584 64.9576772,126.299329 C65.3665396,121.238884 68.0152567,116.963451 73.3082467,114.431011 C73.3082467,114.63946 73.3615766,114.834604 73.4815688,115.003138 C73.6993324,115.349076 74.112639,115.610746 74.6281611,115.734929 C75.1347949,115.814761 74.3304026,115.593006 74.6281611,115.739364 C74.7081559,115.752669 74.7925948,115.774845 74.8770338,115.783715 C74.8948104,115.78815 74.9081429,115.78815 74.9214754,115.78815 C75.0014702,115.80589 75.0636884,115.810326 75.1347949,115.814761 C75.1570157,115.819196 75.1792364,115.819196 75.2059014,115.819196 C75.2770079,115.823631 75.3436702,115.823631 75.4103326,115.823631 L75.4947715,115.823631 C75.5836546,115.823631 75.6769819,115.819196 75.7836417,115.810326 C75.8591923,115.80589 75.9480755,115.783715 76.0325144,115.774845 C76.050291,115.774845 76.0591794,115.765975 76.076956,115.765975 C76.1480625,115.752669 76.2280573,115.734929 76.2947196,115.712753 L76.3124963,115.712753 C76.4724859,115.672838 76.6369197,115.619616 76.7924651,115.557525 C77.356873,115.366816 77.8057327,115.051924 77.983499,114.692681 L77.983499,114.688246 C78.0368289,114.608414 78.0901587,114.528583 78.125712,114.444316 C80.0278108,114.843475 81.6988135,115.841371 82.423211,116.985626 C79.0189874,116.834833 74.0459766,117.952477 69.9395763,122.68029 C75.565878,118.218583 82.0410136,118.196407 86.1962996,119.247525 C86.3385126,116.759436 82.9387331,114.124989 81.0677434,113.091611 C84.4453021,114.19595 88.0628452,117.140855 87.4139984,120.666756 L87.4139984,120.666756 Z M82.0365694,134.513127 C83.7564579,130.867478 84.2630917,124.458764 80.2811277,121.602562 L81.6365954,121.615867 C85.6318918,124.813571 83.8675618,133.053981 82.0365694,134.513127 L82.0365694,134.513127 Z M77.5035301,137.892671 C81.1610706,129.093439 78.4945769,122.564977 78.5301302,122.440795 C83.0542812,123.114929 84.5475177,132.920928 77.5035301,137.892671 L77.5035301,137.892671 Z M75.5125481,139.666709 C75.5125481,140.367455 74.0237558,140.36302 74.0282,139.821938 L74.0948623,122.955266 C74.228187,122.813343 75.2503429,122.352093 75.6592053,122.316612 L75.5125481,139.666709 Z M78.7123406,111.273222 L78.7123406,106.603065 C77.7968444,107.015529 76.8635716,107.410253 75.934743,107.778366 L75.9258547,112.625926 C75.9214105,113.779051 74.0548649,113.978631 74.1259714,113.109352 L74.1526364,108.474676 C73.7393298,108.625469 73.3260233,108.771828 72.9127168,108.918186 L72.8771635,112.563835 L72.6416233,112.719063 C68.9796386,114.431011 65.9265033,117.810554 64.4066019,121.868667 C64.3843811,121.926324 64.3621603,121.979545 64.3443837,122.028331 C63.7933083,123.536264 63.4466641,125.150639 63.3711135,126.800495 C63.3311161,127.430278 63.4111109,131.004966 62.3711783,134.62844 C62.3711783,134.610699 63.3311161,134.477647 65.1843292,132.694738 C66.2109293,131.705711 67.1264254,130.308656 67.8641554,129.306324 C69.5573789,126.986769 70.9084023,124.627297 72.9038285,123.607225 L72.9171609,125.687285 C72.9438259,129.643391 72.9971558,140.3985 72.9927116,140.433981 C72.9793791,140.496072 71.2817115,142.287851 71.0461712,145.348068 C71.0328387,145.472251 79.3834082,144.882383 79.9789251,140.567034 C79.9789251,140.567034 78.3745847,139.511481 78.4323588,139.480435 C90.1871518,131.333163 83.6409098,121.562646 83.6409098,121.562646 C86.4940581,121.966239 88.0761777,122.245651 88.8316842,122.383139 C89.8538401,116.47559 86.3429567,111.610289 78.7123406,111.273222 L78.7123406,111.273222 Z" id="Fill-36" fill="#081E3F"></path>
                <rect id="Rectangle" x="0" y="0" width="150" height="150"></rect>
            </g>
        </g>
    </g>
</svg>