<?xml version="1.0" encoding="UTF-8" standalone="no"?>
<svg width="150px" height="150px" viewBox="0 0 150 150" version="1.1" xmlns="http://www.w3.org/2000/svg" xmlns:xlink="http://www.w3.org/1999/xlink">
    <!-- Generator: Sketch 39.1 (31720) - http://www.bohemiancoding.com/sketch -->
    <title>MIN</title>
    <desc>Created with Sketch.</desc>
    <defs></defs>
    <g id="Page-1" stroke="none" stroke-width="1" fill="none" fill-rule="evenodd">
        <g id="MIN">
            <g id="Page-1">
                <path d="M67.8365937,82.8608152 C67.8286797,82.8581808 67.8207657,82.852912 67.8075757,82.852912 C67.7178838,82.8687184 67.6308299,82.8924281 67.55169,82.9214067 C66.530785,83.2823209 65.7288338,84.8814082 65.8686476,87.9610342 C66.0401175,91.7598543 68.591061,94.1756088 70.8465488,94.7420071 C70.9705347,94.77362 71.0602266,94.7867921 71.1393665,94.7920609 C71.659052,94.805233 71.1393665,94.1808776 70.603853,93.6566299 C70.0050276,93.0533499 69.0342445,91.9679727 69.0342445,90.4004984 C69.0342445,90.2108208 69.0606245,90.0211433 69.0975565,89.8314657 C69.1107465,89.7735087 69.1371264,89.7181861 69.1503164,89.6654978 C69.1846104,89.5364117 69.2241804,89.4073256 69.2743023,89.2861427 C69.3085963,89.1992072 69.3587182,89.1175404 69.3982882,89.0332393 C69.4457721,88.9463037 69.4879801,88.8593682 69.5407401,88.7750671 C69.604052,88.6696906 69.6752779,88.5748518 69.7570558,88.4773787 C69.7966258,88.422056 69.8361958,88.3693678 69.8863177,88.3166796 C69.9760096,88.2060344 70.0841675,88.1032923 70.1949634,88.0031847 C70.2266194,87.9768406 70.2582754,87.9504965 70.2899313,87.921518 C70.4165552,87.8135072 70.5563691,87.7133996 70.7014589,87.6290984 C70.7172869,87.6185608 70.7331149,87.6106576 70.7489429,87.5948511 C70.9098607,87.5052811 71.0734166,87.42098 71.2475244,87.3577541 C71.2501624,87.3551197 71.2528004,87.3551197 71.2528004,87.3551197 C71.4400982,87.2866251 71.627396,87.2365713 71.8252458,87.2023239 C71.1815745,85.4583441 69.3033203,83.1374283 67.8365937,82.8608152" id="Fill-1" fill="#FEFEFE"></path>
                <path d="M71.3427561,97.1725143 C71.3427561,97.1725143 71.1818383,96.3716535 70.7755866,96.047621 C70.374611,95.7288573 70.1345533,95.4864915 69.6491617,95.6471906 C69.6491617,95.6471906 68.4462349,96.2056856 68.4462349,99.0192362 C68.4462349,101.184722 69.6491617,101.909185 69.6491617,101.909185 C69.6491617,101.909185 69.1716842,99.4986989 69.8153556,98.4581067 C70.461665,97.4122457 71.3427561,97.1725143 71.3427561,97.1725143" id="Fill-3" fill="#FEFEFE"></path>
                <path d="M73.2798376,98.3624776 C73.2798376,98.3624776 74.0897028,99.4057042 74.4089005,99.8061346 L75.4482715,98.5231767 L76.4955565,99.8061346 C76.8147542,99.4057042 77.6167054,98.3624776 77.6167054,98.3624776 C78.028233,98.4415099 78.5004345,99.487371 78.5004345,99.487371 C79.3155757,98.6838757 79.3155757,97.4009177 79.3155757,97.4009177 C79.064966,96.8371539 77.6984833,97.1638208 77.3740096,97.8039826 C76.7356142,97.1638208 75.8492471,97.4773157 75.4482715,97.8777461 C75.0552099,97.4773157 74.1609288,97.1638208 73.5251714,97.8039826 C73.2059737,97.1638208 71.834215,96.8371539 71.5941573,97.4009177 C71.5941573,97.4009177 71.5941573,98.6838757 72.3934705,99.487371 C72.3934705,99.487371 72.878862,98.4415099 73.2798376,98.3624776" id="Fill-5" fill="#FEFEFE"></path>
                <path d="M71.3657067,116.57811 C71.6295064,116.57811 72.2573498,116.140798 72.2573498,115.094937 C72.2573498,114.05171 71.9724461,114.112302 71.9724461,114.112302 C70.1443139,113.93843 70.7563293,111.095901 70.7563293,111.095901 C70.4028376,111.530579 69.8884281,112.312999 69.8884281,113.703968 C69.8884281,115.969561 71.1019069,116.57811 71.3657067,116.57811" id="Fill-7" fill="#FEFEFE"></path>
                <path d="M79.7294775,116.57811 C79.9880013,116.57811 81.2067561,115.969561 81.2067561,113.703968 C81.2067561,112.312999 80.6844326,111.530579 80.3414929,111.095901 C80.3414929,111.095901 80.9429564,113.93843 79.1121861,114.112302 C79.1121861,114.112302 78.8246444,114.05171 78.8246444,115.094937 C78.8246444,116.140798 79.4656778,116.57811 79.7294775,116.57811" id="Fill-9" fill="#FEFEFE"></path>
                <path d="M70.050665,74.0120934 C69.9345931,73.9330611 68.8556521,73.271824 67.6896573,72.7633828 C66.937828,72.4367158 66.1543427,72.1785436 65.5871733,72.2048877 C64.0993427,72.2654791 63.1549397,73.8830073 59.4353633,72.5552643 C56.3462683,71.4514463 56.1879884,68.2137556 56.4016662,66.3907435 C56.4755302,65.7347752 55.663027,64.8996671 55.1538935,64.14886 C54.4812041,63.1530528 54.0090026,61.5039118 53.9562426,61.3142342 C53.9509666,61.3036966 53.9456906,61.2773525 53.9456906,61.2773525 C53.9456906,61.2773525 51.6770128,66.4592381 52.2600103,69.6811223 C52.560742,71.327629 53.520973,73.5141898 55.7711849,74.5416099 C53.3495032,75.3477396 49.9702285,77.4763434 48.2317882,81.5307013 C45.7045866,87.4159746 46.4379499,90.3349016 46.4379499,90.3349016 C46.4379499,90.3349016 48.7699397,87.4607596 51.8563967,87.360652 C51.531923,89.1415136 51.2918652,92.0340964 52.3708062,96.6206053 C52.3708062,96.6206053 53.9905366,93.0299036 57.0426996,93.0299036 C57.1666855,95.3639915 57.7259409,99.3946397 58.2456264,101.230824 C59.5303312,105.767279 61.3004275,108.414862 61.4059474,108.567657 C61.4059474,108.570292 61.4217754,108.594002 61.4217754,108.594002 C61.4217754,108.594002 62.3846444,107.524431 63.1549397,106.934323 C63.2762875,106.844753 63.4002734,106.755183 63.5216213,106.681419 C63.5216213,106.681419 63.1259217,104.473783 62.7143941,103.443729 C62.6959281,103.398944 62.6801001,103.356793 62.6669101,103.312008 C61.817475,101.017437 61.8913389,99.3077042 61.9414608,98.0247462 C61.9520128,98.0563591 62.809362,99.3472203 63.814439,101.3362 C64.2180526,102.131792 64.6454082,103.03803 65.0463838,104.020665 C65.0965058,104.13131 65.1439897,104.239321 65.1941117,104.355235 C65.2020257,104.386848 65.2125777,104.421095 65.2257677,104.452708 C65.5476033,105.258838 65.848335,106.107118 66.1200488,106.979108 C66.3047086,107.606098 66.4313325,108.322657 66.5289384,109.089271 C66.945742,112.424435 66.8191181,116.784384 68.8846701,119.597935 C70.7761142,122.190195 74.094715,122.229711 74.094715,122.229711 C74.5510886,122.258689 74.9678922,122.253421 75.3794198,122.240249 L75.4480077,122.240249 C75.4559217,122.227077 76.128611,121.426216 76.141801,120.627989 C76.154991,119.974655 75.5007677,119.302881 75.5007677,119.302881 C75.4743877,119.300246 75.4480077,119.300246 75.4242657,119.300246 C75.3002798,119.292343 75.16838,119.28444 75.0417561,119.276537 C74.9863582,119.273902 74.9335982,119.268633 74.8808383,119.265999 C74.7489384,119.252827 74.6144005,119.244924 74.4772246,119.226483 C74.4191887,119.221214 74.3611528,119.213311 74.3004788,119.208042 C74.1685789,119.19487 74.0314031,119.176429 73.8915892,119.155354 C73.8335533,119.147451 73.7649653,119.134278 73.7069294,119.126375 C73.5671155,119.100031 73.4325777,119.08159 73.2927638,119.055246 C73.2294519,119.042074 73.1661399,119.023633 73.102828,119.010461 C72.8891502,118.965676 72.6807484,118.910354 72.4697086,118.849762 C72.3536367,118.815515 72.2322888,118.781267 72.1135789,118.741751 C72.031801,118.712773 71.9526611,118.678525 71.8735212,118.649547 C71.7574493,118.604762 71.6387394,118.562611 71.5226675,118.512558 C71.4488036,118.480945 71.3723017,118.438794 71.2957997,118.401912 C71.1823659,118.34659 71.074208,118.293901 70.9686881,118.23331 C70.8921861,118.188525 70.8183222,118.146374 70.7497343,118.096321 C70.6468524,118.033095 70.5466085,117.969869 70.4463646,117.89874 C70.3804146,117.846052 70.3144647,117.790729 70.2485148,117.738041 C70.1535469,117.659009 70.0664929,117.582611 69.976801,117.498309 C69.9214031,117.437718 69.8607291,117.374492 69.8053312,117.313901 C69.7235533,117.226965 69.6470513,117.126858 69.5705494,117.029384 C69.5204275,116.96089 69.4676675,116.895029 69.4201836,116.821266 C69.3568716,116.713255 69.2909217,116.605244 69.2355237,116.491965 C69.1985918,116.412932 69.1511078,116.336534 69.1194519,116.252233 C69.0640539,116.13105 69.024484,116.001964 68.982276,115.870244 C68.95062,115.783308 68.9189641,115.699007 68.8978601,115.606803 C68.8609281,115.464544 68.8424621,115.309114 68.8160822,115.153684 C68.8055302,115.06148 68.7844262,114.974544 68.7765122,114.877071 C68.7580462,114.674221 68.7580462,114.452931 68.7633222,114.229006 C68.7633222,114.173683 68.7580462,114.126264 68.7633222,114.070941 C68.8081682,113.156801 68.8319101,112.221585 68.8081682,111.244219 C68.7633222,109.56083 68.5654724,107.748356 68.0220449,105.669806 C67.5049974,103.696632 66.6872182,101.483727 65.4130655,98.9125426 C64.5187843,97.1053369 63.7300231,94.1363561 62.9834698,91.6283972 C62.1604146,88.8517284 62.5693042,86.4412427 63.2921155,84.7973705 C64.3710565,82.3315621 66.1200488,80.8194104 68.3570706,81.3094108 C69.3173017,81.5201637 70.0638549,81.9390349 70.6204724,82.3789815 C71.5464095,83.1192509 71.9526611,83.9253805 71.9526611,83.9253805 C71.9526611,83.9253805 72.2665828,78.9384412 67.5524814,77.9452684 C67.5524814,77.9452684 68.1592208,77.0153215 69.5045995,76.6596761 C69.6945353,76.6096223 69.9029371,76.5674717 70.1245289,76.5463964 C70.1377189,76.543762 70.1614608,76.543762 70.1746508,76.5411276 C70.2590668,76.5332244 70.3645866,76.5279555 70.4674685,76.5200523 C70.5545225,76.5174179 70.6442144,76.5147835 70.7418203,76.5147835 L70.8394262,76.5147835 C71.066294,76.5147835 71.3089897,76.5279555 71.5675135,76.5542996 C71.5965315,76.5542996 71.6176354,76.5542996 71.6440154,76.5595685 C71.4910116,76.0274175 70.9238421,75.0447824 70.050665,74.0120934" id="Fill-11" fill="#FEFEFE"></path>
                <path d="M76.8516861,116.834175 L76.1552548,115.617077 L75.5432394,116.92111 L74.941776,115.617077 L74.2427067,116.834175 C73.1927837,116.749873 73.0186759,115.092829 73.0186759,115.092829 C73.0186759,115.092829 72.4515064,116.623422 73.2798376,117.619229 C73.7203832,118.140842 74.3244846,117.619229 74.3244846,117.619229 C74.3244846,117.619229 74.8547221,118.056541 75.5432394,117.700896 C76.2396707,118.056541 76.7646322,117.619229 76.7646322,117.619229 C76.7646322,117.619229 77.3740096,118.140842 77.8066412,117.619229 C78.6402484,116.623422 78.0730789,115.092829 78.0730789,115.092829 C78.0730789,115.092829 77.8963331,116.749873 76.8516861,116.834175" id="Fill-13" fill="#FEFEFE"></path>
                <path d="M82.4458235,99.0197631 C82.4458235,96.2062125 81.2481727,95.6477175 81.2481727,95.6477175 C80.7654191,95.4870184 80.5200854,95.7293842 80.1243858,96.0481479 C79.7181341,96.3721804 79.5598543,97.1730412 79.5598543,97.1730412 C79.5598543,97.1730412 80.4435834,97.415407 81.0872548,98.4586336 C81.7282882,99.4992258 81.2481727,101.909712 81.2481727,101.909712 C81.2481727,101.909712 82.4458235,101.185249 82.4458235,99.0197631" id="Fill-15" fill="#FEFEFE"></path>
                <g id="Group-19" transform="translate(25.000000, 21.203766)" fill="#C4CDD3">
                    <path d="M96.4348979,75.4168393 C96.4348979,75.4168393 92.9632933,68.2696833 88.0671701,67.83764 C88.6422535,72.1422669 88.6422535,78.8415731 84.9253151,85.0561478 C84.9253151,85.0561478 82.7093973,79.5502296 79.8339801,78.4701212 C79.8339801,78.4701212 80.0133639,85.4776535 75.6949621,90.504109 C75.6949621,90.504109 74.2598915,85.654159 72.0993716,84.4001795 C72.0993716,84.4001795 70.4770032,90.1458291 65.8024718,94.9931446 C65.8024718,94.9931446 64.7710148,92.1664221 62.512889,89.8323342 C62.3361431,90.1800764 62.1593973,90.5278186 62.0222214,90.8650232 C62.0222214,90.8650232 59.7218877,101.687182 57.0944422,103.657721 C54.4696348,105.625626 49.7608094,105.846916 49.7608094,105.846916 C49.7608094,105.846916 45.4898915,105.625626 42.8518941,103.657721 C40.2270866,101.687182 37.9267529,90.8650232 37.9267529,90.8650232 C37.839699,90.6621736 37.7447311,90.4540552 37.6392112,90.2433023 C35.6527991,92.4878201 34.745328,94.9931446 34.745328,94.9931446 C30.0681585,90.1458291 28.4510661,84.4001795 28.4510661,84.4001795 C26.2905462,85.654159 24.8528376,90.504109 24.8528376,90.504109 C20.5344358,85.4776535 20.7190956,78.4701212 20.7190956,78.4701212 C17.8384024,79.5502296 15.6198466,85.0561478 15.6198466,85.0561478 C11.8738902,78.7862505 11.9108222,72.0342561 12.4964576,67.7296292 C7.13868485,69.0125871 4.09443582,75.4458179 4.09443582,75.4458179 C4.09443582,75.4458179 1.79410205,67.350274 3.75677214,59.4786551 C5.99379397,50.5638096 11.7103344,46.8598282 11.7103344,46.8598282 C11.7103344,46.8598282 7.87204814,46.2697203 3.12365276,47.6764955 C3.12365276,47.6764955 7.17825481,40.7875118 13.7838004,37.4497135 C13.7838004,37.4497135 9.54981451,36.9096593 7.23892875,37.067724 C7.23892875,37.067724 10.0035501,32.3310537 16.0867721,28.7508896 C16.0867721,28.7508896 11.064025,17.8022791 10.2462458,6.04490452 C10.061586,3.43420359 10.6920674,0.857750009 14.7651354,3.81882754 C18.8513935,6.78780831 32.4924782,15.2284599 36.2780045,16.1926542 C36.2780045,16.1926542 36.1329146,11.9723284 35.0961816,9.37743395 C35.0961816,9.37743395 41.5487234,11.3031881 44.6641983,15.0071694 C44.6641983,15.0071694 44.8884281,12.1909845 44.7354243,10.7842092 C44.7354243,10.7842092 51.19588,14.561954 52.3012009,16.4877082 C52.3012009,16.4877082 52.9712522,13.1551788 52.6731585,11.9723284 C52.6731585,11.9723284 56.2212651,12.2700168 58.4503729,17.8259888 C58.4503729,17.8259888 61.439224,12.5439955 63.6208479,11.1582955 C63.6208479,11.1582955 63.8477157,15.9950734 65.2326643,17.5730854 C65.2326643,17.5730854 68.593473,17.378139 74.5342433,13.8216847 C80.4723755,10.2625959 91.7419005,1.96947129 93.5251868,1.57167529 C93.5251868,1.57167529 98.7325937,4.53802164 88.4470417,29.0327716 C88.4470417,29.0327716 92.5464897,30.7609449 95.6223947,37.2969177 C95.6223947,37.2969177 91.5440507,35.99025 89.0379531,36.5698204 C89.0379531,36.5698204 96.3188261,41.9861686 97.7407067,48.4536467 C97.7407067,48.4536467 93.3563549,46.3145052 89.206785,46.9046132 C89.206785,46.9046132 94.1424782,51.2197778 96.4348979,56.019674 C100.38398,64.3207018 96.4348979,75.4168393 96.4348979,75.4168393 M92.8076515,48.4483778 C95.1871252,48.8461738 97.0785693,49.7471423 97.0996733,49.7603143 L99.8036207,51.0722508 L99.1573113,48.1427862 C98.2867721,44.1569229 95.5063228,40.6399848 93.0160533,38.1531011 C93.9472664,38.3296066 94.7597696,38.5456283 95.1844872,38.6799833 L98.3579981,39.6942313 L96.9387555,36.6778312 C94.6779917,31.8805695 91.8949044,29.491159 90.261984,28.4110507 C94.2717401,18.661097 96.3109121,11.1635643 96.3109121,6.14501212 C96.3109121,1.95103042 94.8626515,0.668072444 94.2479981,0.315061421 L94.2321701,0.30715819 L94.31131,0.359846402 L93.6887426,0.0595235914 C93.6887426,0.0595235914 93.2218171,0.154362374 93.1901611,0.162265606 C92.0215282,0.433609899 89.3967208,2.16441768 83.2712908,6.33205527 C79.8603601,8.65033662 76.3386335,11.0476503 73.785052,12.5782429 C69.9230237,14.8912554 67.2269904,15.7000194 65.9871316,15.9739981 C65.4384281,14.6910402 65.1376964,12.4149094 65.0743845,11.0924353 L64.9530366,8.58974517 L62.8400006,9.93066018 C61.3732741,10.8658759 59.7693716,13.0445335 58.5558928,14.901793 C56.0471573,10.8711448 52.9316823,10.5365746 52.7945064,10.526037 L50.7738004,10.3521659 L51.2671059,12.322705 L51.2987619,12.7679204 C51.2987619,12.7679204 51.2723819,13.0919529 51.2539159,13.4080822 C49.0617401,11.6588335 46.0939929,9.89377843 45.4714255,9.53022977 L42.986432,8.0760351 L43.2924397,10.9343706 C43.2924397,10.9343706 43.3161816,11.5666292 43.3267336,11.8748552 C39.907889,9.34582102 35.7029211,8.04442218 35.5129852,7.98646514 L32.627016,7.12764728 L33.745527,9.91748813 C34.2150905,11.0924353 34.4815282,12.6704472 34.6371701,13.9955558 C29.6750969,11.719425 19.5557388,5.49958152 15.6198466,2.64388041 C13.4619647,1.07640609 11.7710083,0.665438034 10.4546476,1.39253536 C9.31767073,2.01952509 8.76105327,3.29457983 8.76105327,5.28355985 L8.79534724,6.14501212 C9.47858858,16.0135143 13.0108671,25.1944353 14.2744679,28.2134699 C8.67663736,31.8542253 6.09139987,36.1483147 5.98060398,36.3327234 L4.60356932,38.6957897 L7.33389666,38.5140154 C7.86413415,38.4771336 8.58430745,38.4850369 9.4522086,38.5271874 C4.75393517,42.1468676 1.98931386,46.7333765 1.87060398,46.9388606 L0.000263799743,50.1133253 L3.53518036,49.0674643 C4.96233697,48.6459586 6.45016752,48.4193993 7.96437805,48.3008508 C5.98060398,50.5032181 3.63806226,53.999081 2.35335751,59.1203753 C1.78882606,61.3727963 1.50656033,63.8465079 1.50656033,66.4861873 C1.50656033,71.3045244 2.48789538,75.0585595 3.01021887,76.3652272 L4.05750385,78.7282935 L4.45320347,77.9379703 L5.39760655,76.0780764 C5.42398652,76.0227538 7.44996855,71.9657614 10.8424332,70.0162976 C10.8002253,70.8197928 10.7474653,72.0131808 10.7474653,72.0131808 C10.7474653,77.1371095 11.9662202,81.7736722 14.3694358,85.801686 L15.8704564,88.3122793 L16.9652253,85.5988364 C17.4057709,84.5134592 18.3791919,82.6720062 19.4686849,81.3468976 C19.8353665,83.9760394 20.8641855,88.0883544 23.7501547,91.447228 L25.485957,93.4730897 L26.2457003,90.9177114 C26.5754499,89.811259 27.2059313,88.2938384 27.9155526,87.1346978 C28.8362137,89.3212586 30.635328,92.8250247 33.695405,95.9994895 L35.3098594,97.6776091 L36.1091727,95.4910483 C36.1144487,95.4778762 36.4389223,94.6374992 37.0720417,93.5494876 C38.0428248,97.4247056 39.7970931,103.180893 41.9787169,104.819496 C44.9438261,107.032401 49.4943716,107.285305 49.6843074,107.295842 L49.7819134,107.295842 L49.8320353,107.295842 C50.3596348,107.269498 55.0816502,106.977079 57.9676194,104.822131 C60.3233511,103.054441 62.1857773,96.4605114 63.0484024,92.8829817 C63.9136656,94.2133591 64.3832291,95.3540589 64.4386271,95.4989515 L65.2353023,97.6723402 L66.8497567,96.0021239 C69.9124718,92.8250247 71.708948,89.3212586 72.6348851,87.1399666 C73.3418684,88.2938384 73.9776258,89.811259 74.3020995,90.9177114 L75.0618427,93.4730897 L76.8002831,91.447228 C79.6836142,88.08572 80.7124332,83.9760394 81.0791149,81.3468976 C82.1712458,82.6720062 83.1393909,84.5134592 83.5825745,85.5988364 L84.6773434,88.3122793 L86.1783639,85.801686 C88.5815796,81.7736722 89.8003344,77.1344751 89.8003344,72.0052776 C89.8003344,72.0052776 89.7370225,70.7091476 89.6974525,69.9030179 C92.7575295,71.4915675 95.0262073,75.8541515 95.1264512,76.0490979 L96.6459377,79.1656056 L97.7987426,75.9015709 C97.8752445,75.6934525 99.6506168,70.6617282 99.6506168,64.7659172 C99.6506168,61.2041941 99.0122214,58.0508045 97.7433447,55.3953186 C96.4691919,52.7213919 94.4880558,50.2687556 92.8076515,48.4483778" id="Fill-17"></path>
                </g>
                <path d="M120.929985,89.9060195 L120.697841,89.9244604 L120.241468,87.1346196 C118.06512,79.3736459 114.609343,73.6806845 109.372918,69.2232618 L107.259883,67.5108949 L103.434786,64.3864839 L107.86926,63.7463221 C109.40985,63.4934187 112.26944,63.5961607 114.163522,63.6646554 C114.163522,63.6646554 114.543393,63.6778274 114.828297,63.6857306 C111.588836,60.2847065 104.379189,55.4242189 104.318515,55.3820684 L103.458528,54.9579283 L103.727604,54.8657239 C106.444741,53.9621211 111.121911,54.0938416 112.314286,54.1438954 C111.718098,53.5590562 109.773894,51.7755602 106.985531,50.4662582 L106.864183,50.4083011 L106.935409,50.2950215 C111.45166,43.5245862 113.701872,34.8995258 114.643637,30.3604363 C114.725415,29.9573715 114.725415,29.9573715 114.799279,29.9152209 C114.722777,29.9099521 114.32444,30.031135 112.293182,31.8804912 C112.010916,32.0912441 108.705505,34.8968914 104.271031,39.0856043 C104.368637,39.2384001 106.01211,41.8122193 106.01211,41.8122193 L105.85383,41.8517354 C102.849151,42.6025425 99.5252741,43.2005537 96.4493691,43.5641023 C96.7606528,43.869694 100.627957,47.6816861 100.627957,47.6816861 L100.498695,47.8713637 L96.6735988,45.9377063 C94.0751714,44.5256622 91.6218338,43.1926504 88.7727965,42.8607147 L88.7437786,42.631521 L90.2184191,42.0703915 L93.0331624,41.0166273 C100.089806,38.6640986 110.829093,30.916297 111.288105,30.5869956 C114.772899,27.7181225 115.809632,26.9040896 116.513978,27.2412941 C117.004645,27.4704879 117.178753,27.9341441 117.178753,28.2897896 L117.178753,28.2950584 C117.155011,28.4294133 114.590877,41.6409826 109.312245,49.8998599 C109.96383,50.1553977 114.147694,51.9046464 116.382078,55.5190577 L116.49815,55.7034665 L116.281834,55.6981977 C116.231712,55.6981977 111.62313,55.6165309 109.106481,56.0564775 C111.7946,57.7714788 117.577091,63.1219668 119.246943,66.0646034 L119.370929,66.2753563 L119.130871,66.2384745 C114.783451,65.5429901 110.272476,65.7142268 109.185621,65.7721839 C109.470524,66.0672378 110.528361,67.139443 110.528361,67.139443 L112.356494,68.994068 C118.054568,73.8413836 120.940537,80.6249909 120.940537,89.1604813 C120.940537,89.4081159 120.937899,89.6557505 120.929985,89.9060195 M81.5394076,68.4250353 C81.3389198,66.8680987 85.8472574,57.6160486 86.0424692,58.7804581 C86.240319,59.9501364 86.6281046,61.1435244 86.8523344,60.7773413 C87.4485218,59.7736309 91.2419621,57.9084682 91.2419621,57.9084682 C91.2419621,57.9084682 89.8913074,60.255728 90.4874949,59.9000826 C91.3026361,59.4127166 93.2916861,60.4164271 93.2916861,60.4164271 C87.6938556,62.6003535 83.2593819,65.1109468 81.5394076,68.4250353 M90.7592086,70.674822 C88.3612689,72.4846621 86.8206784,69.8686924 86.8206784,69.8686924 L87.8653254,69.1468639 C87.8653254,69.1468639 88.7490546,69.9529935 89.9572574,69.3865952 C91.1707362,68.8281002 90.7592086,67.6189057 90.7592086,67.6189057 L92.0491893,66.7363781 C92.0491893,66.7363781 93.0595424,68.9413798 90.7592086,70.674822 M59.3195552,111.170982 C59.3195552,111.170982 57.1379313,107.66985 56.0589904,105.240924 C54.7663716,102.337803 54.1675462,100.214468 54.1675462,100.214468 C51.4715128,101.112802 49.8517824,105.601838 49.8517824,105.601838 C47.5725526,99.9141455 48.4114358,93.7469902 48.4114358,93.7469902 C44.2776938,94.2870444 41.3996386,99.4952742 41.3996386,99.4952742 C38.1601778,91.4129024 41.0989069,86.1414468 41.0989069,86.1414468 C36.1869557,85.3353171 32.6652291,87.4349424 30.4202933,89.6373097 C30.3991893,88.4281152 30.3807234,84.1656388 31.1457426,81.7156369 C32.0452997,78.8388605 33.4566284,72.4267051 41.8876682,65.8880979 C41.8876682,65.8880979 43.4308967,65.2294953 34.3614615,65.060893 C34.3614615,65.060893 38.2683357,59.9079858 44.6865834,57.015403 C44.6865834,57.015403 40.6557234,56.3093809 37.1366348,56.688736 C37.1366348,56.688736 39.972482,51.2302372 49.7937465,49.7259888 L50.5798697,49.5969027 C49.9414743,48.4799126 48.3692279,48.9383 47.7413845,47.847654 C47.4037208,47.2549116 56.3834641,45.0946949 56.0484384,44.5098558 C55.6527388,43.8143713 48.0632202,41.951843 47.6727965,41.2695307 C47.4432908,40.8770035 50.4031239,39.6256585 50.1788941,39.2357657 C49.9731303,38.8748514 48.3191059,37.9817862 46.8233614,36.9649037 C45.3408068,35.9611933 44.0165321,34.8336656 43.8740802,34.8679129 C42.5761855,35.189311 44.2829698,47.7923314 44.3489198,48.4641061 C44.3594718,48.5352352 43.051025,48.8013107 43.051025,48.8013107 C42.3387657,48.0926542 36.5061534,30.6107053 37.7829442,27.5284449 C37.970242,27.0779607 38.7431752,27.3229609 41.5526425,29.4673711 C53.394613,38.4981307 63.6907169,40.7479174 63.6907169,40.7479174 C63.9914487,38.371679 63.6907169,35.1076443 63.6907169,35.1076443 C68.2992985,36.8885058 70.9715899,41.9334022 70.9715899,41.9334022 L71.1245937,41.4881868 C71.823663,39.3911959 72.0135988,36.4432904 72.0135988,36.4432904 C74.2453447,37.7736678 76.4032266,41.3643695 76.4032266,41.3643695 C76.4032266,41.3643695 77.1207619,48.6037299 75.2715257,52.4578726 C74.2163267,54.6470678 70.7130661,56.0248646 67.5580212,55.8457246 C67.5580212,55.8457246 68.4100944,56.9758868 69.7211791,57.9216402 C70.5125783,58.4985761 72.0320648,59.0781465 72.0320648,59.0781465 C72.0320648,59.0781465 69.2568915,61.082933 62.9309737,59.6945986 C62.3611662,59.7578244 66.0649146,63.3906767 71.4174114,65.6615386 C73.9815449,66.754819 75.2398697,70.911919 71.900165,70.9435319 C71.900165,70.9435319 74.6384063,74.0679429 74.891654,76.3282672 L75.3137336,78.5885915 C74.2822766,77.1396657 72.7680661,76.673375 71.5677773,76.5548265 C71.3092535,76.5284824 71.0665578,76.5153104 70.83969,76.5153104 L70.7420841,76.5153104 C70.6418402,76.5153104 70.5521483,76.5179448 70.4677323,76.5205792 C70.3622125,76.5284824 70.2593306,76.5337512 70.1722766,76.5416545 C70.1590866,76.5442889 70.1379827,76.5442889 70.1247927,76.5469233 C69.9032009,76.5679986 69.6947991,76.6101491 69.5048633,76.6602029 C68.1594846,77.0158484 67.5527452,77.9457953 67.5527452,77.9457953 C68.4865963,77.808806 69.0352997,77.6928919 70.6365642,78.2276773 C75.7806592,79.9558506 75.1106078,86.9739205 75.4298055,88.1014483 C75.4377195,88.080373 74.1081688,87.1477916 72.2879506,87.1477916 C72.1323087,87.1477916 71.9766669,87.1741357 71.823663,87.2004798 C71.6284512,87.2373616 71.4411534,87.2874154 71.2512176,87.3532756 C71.2512176,87.3532756 71.2485796,87.3532756 71.2459416,87.3585445 C71.0744718,87.4217703 70.9082779,87.5060715 70.7499981,87.5956414 C70.7315321,87.6114479 70.7157041,87.6193511 70.6998761,87.6298888 C70.5574243,87.7141899 70.4176104,87.8142975 70.2909865,87.9223083 C70.2566926,87.9512869 70.2276746,87.977631 70.1960186,88.0039751 C70.0825847,88.1040827 69.9770648,88.2068247 69.8873729,88.3174699 C69.837251,88.3701581 69.797681,88.4228464 69.755473,88.478169 C69.6763331,88.5756422 69.6051072,88.670481 69.5417953,88.7758574 C69.4890353,88.8575241 69.4441893,88.9470941 69.3967054,89.0340296 C69.3571354,89.1183308 69.3096515,89.1999975 69.2753575,89.286933 C69.2225976,89.4081159 69.1856656,89.537202 69.1513716,89.6662882 C69.1355436,89.7189764 69.1118017,89.774299 69.0986117,89.832256 C69.0616797,90.0219336 69.0352997,90.2116112 69.0352997,90.3986543 C69.0352997,91.9661286 70.0034448,93.0541402 70.6022702,93.6574203 C71.1377837,94.181668 71.6601072,94.8060233 71.1377837,94.7902168 C71.0612818,94.7875824 70.9689519,94.7744104 70.844966,94.7427974 C68.5921162,94.1763991 66.0385347,91.7606446 65.8670648,87.9618245 C65.729889,84.8821985 66.5318402,83.2831112 67.5527452,82.922197 C67.6292471,82.8932185 67.718939,82.8668744 67.8059929,82.8537023 C67.8191829,82.8537023 67.8297349,82.8589711 67.8376489,82.8616055 C69.6314872,82.4295622 71.9502869,83.9259074 71.9502869,83.9259074 C71.9502869,83.9259074 71.5466733,83.1197778 70.6207362,82.3821428 C70.0641187,81.9395618 69.3175655,81.5206905 68.3573344,81.3099377 C66.1176746,80.8199373 64.3713203,82.332089 63.2923793,84.8005318 C62.569568,86.4417696 62.1606784,88.8548897 62.9837336,91.6289241 C63.7276489,94.1395174 64.5164101,97.1058638 65.4133293,98.9130694 C66.687482,101.484254 67.5052612,103.697159 68.0223087,105.670333 C68.5630982,107.751517 68.760948,109.561357 68.808432,111.244746 C68.8321739,112.222112 68.808432,113.157328 68.760948,114.071468 C68.75831,114.126791 68.760948,114.17421 68.760948,114.229533 C68.75831,114.453458 68.75831,114.674748 68.774138,114.877598 C68.78469,114.977705 68.805794,115.062007 68.816346,115.154211 C68.8427259,115.309641 68.8611919,115.465071 68.8954859,115.60733 C68.9192279,115.702168 68.9508838,115.783835 68.9825398,115.873405 C69.0221098,116.002491 69.0643177,116.131577 69.1170777,116.25276 C69.1513716,116.337061 69.1988556,116.413459 69.2357875,116.495126 C69.2911855,116.605771 69.3571354,116.716416 69.4204474,116.821793 C69.4679313,116.895556 69.5206913,116.964051 69.5708132,117.029911 C69.6473151,117.130019 69.7211791,117.227492 69.802957,117.314428 C69.8609929,117.375019 69.9216669,117.440879 69.9770648,117.498836 C70.0667567,117.583137 70.1538107,117.659535 70.2487786,117.738568 C70.3147285,117.791256 70.3806784,117.846579 70.4466284,117.899267 C70.5468723,117.970396 70.6471162,118.033622 70.7499981,118.096848 C70.818586,118.146901 70.8924499,118.189052 70.9689519,118.233837 C71.0744718,118.297063 71.1826297,118.347117 71.2960635,118.402439 C71.3725655,118.439321 71.4490674,118.481472 71.5229313,118.513084 C71.6390032,118.563138 71.7577131,118.607923 71.873785,118.652708 C71.9529249,118.679052 72.0320648,118.715934 72.1138427,118.742278 C72.2299146,118.781794 72.3512625,118.816042 72.4699724,118.850289 C72.6810122,118.91088 72.889414,118.966203 73.1030918,119.010988 C73.1664037,119.02416 73.2297157,119.042601 73.2930276,119.055773 C73.4328415,119.082117 73.5647413,119.103192 73.7045552,119.126902 C73.7652291,119.134805 73.8311791,119.147977 73.891853,119.155881 C74.0316669,119.176956 74.1688427,119.195397 74.3007426,119.211203 C74.3614166,119.216472 74.4168145,119.224375 74.4774884,119.229644 C74.6146643,119.245451 74.7465642,119.255988 74.8811021,119.266526 C74.933862,119.26916 74.986622,119.274429 75.0393819,119.277064 C75.1686438,119.287601 75.3005436,119.29287 75.4245295,119.300773 C75.7173472,119.311311 76.002251,119.319214 76.2528607,119.319214 C80.4024307,119.319214 81.8559673,116.900825 82.096025,113.6605 C82.3730148,109.92754 81.7398954,105.414795 85.4462818,98.8419404 C86.8576104,96.3550567 84.2697349,100.76506 84.0956271,107.875334 C83.9347092,114.643135 84.0692471,122.066904 75.4456335,122.240775 C75.4271675,122.240775 75.4007875,122.240775 75.3796836,122.24341 C74.968156,122.253948 74.5487144,122.259216 74.0949788,122.230238 C74.0949788,122.230238 70.776378,122.190722 68.8822959,119.598462 C66.8167439,116.784911 66.9460058,112.427596 66.5292022,109.089798 C66.4315963,108.323184 66.3049724,107.606624 66.1176746,106.982269 C65.8485988,106.107645 65.5478671,105.259365 65.2260315,104.453235 C65.2128415,104.421622 65.2022895,104.387375 65.1943755,104.355762 C65.1442535,104.242482 65.0941316,104.134471 65.0466476,104.021192 C64.643034,103.038556 64.2183164,102.132319 63.8147028,101.336727 C62.8096258,99.3477472 61.9522766,98.056886 61.9417246,98.0252731 C61.8916027,99.3108654 61.8177388,101.017964 62.6671739,103.312535 C62.6803639,103.35732 62.6961919,103.399471 62.7120199,103.444256 C63.1261855,104.476945 63.5218851,106.681946 63.5218851,106.681946 C63.3978992,106.75571 63.2765513,106.84528 63.1552035,106.93485 C62.3822702,107.524958 61.4220392,108.594528 61.4220392,108.594528 C61.4220392,108.594528 61.4035732,108.570819 61.4035732,108.568184 C60.2323023,109.845874 59.3195552,111.170982 59.3195552,111.170982 M79.1124499,114.110984 C80.9432202,113.939748 80.3417567,111.097219 80.3417567,111.097219 C80.6820584,111.531896 81.2070199,112.314316 81.2070199,113.705285 C81.2070199,115.970878 79.9882651,116.579427 79.7297413,116.579427 C79.4659416,116.579427 78.8249082,116.142115 78.8249082,115.096254 C78.8249082,114.053027 79.1124499,114.110984 79.1124499,114.110984 M71.5941573,97.4035522 C71.834215,96.8371539 73.2033357,97.1664552 73.5251714,97.8039826 C74.1609288,97.1664552 75.0525719,97.4799501 75.4456335,97.8803805 C75.8492471,97.4799501 76.7356142,97.1664552 77.3740096,97.8039826 C77.6984833,97.1664552 79.064966,96.8371539 79.3155757,97.4035522 C79.3155757,97.4035522 79.3155757,98.6865101 78.5004345,99.487371 C78.5004345,99.487371 78.025595,98.4441443 77.6167054,98.3624776 C77.6167054,98.3624776 76.8147542,99.4083386 76.4955565,99.8061346 L75.4456335,98.5231767 L74.4089005,99.8061346 C74.0897028,99.4083386 73.2798376,98.3624776 73.2798376,98.3624776 C72.878862,98.4441443 72.3934705,99.487371 72.3934705,99.487371 C71.5941573,98.6865101 71.5941573,97.4035522 71.5941573,97.4035522 M70.7552741,111.097219 C70.7552741,111.097219 70.1432587,113.939748 71.9713909,114.110984 C71.9713909,114.110984 72.2562946,114.053027 72.2562946,115.096254 C72.2562946,116.142115 71.6284512,116.579427 71.3646515,116.579427 C71.1034897,116.579427 69.8873729,115.970878 69.8873729,113.705285 C69.8873729,112.314316 70.4044204,111.531896 70.7552741,111.097219 M69.6473151,101.911029 C69.6473151,101.911029 68.4470263,101.183931 68.4470263,99.0210803 C68.4470263,96.2075297 69.6473151,95.6464003 69.6473151,95.6464003 C70.1327067,95.4883356 70.3754024,95.728067 70.776378,96.0468307 C71.1826297,96.3734976 71.3409095,97.1743584 71.3409095,97.1743584 C71.3409095,97.1743584 70.4624564,97.4140898 69.813509,98.4573164 C69.1698376,99.4979086 69.6473151,101.911029 69.6473151,101.911029 M77.8066412,117.620019 C77.3713716,118.141633 76.7646322,117.620019 76.7646322,117.620019 C76.7646322,117.620019 76.2396707,118.057331 75.5432394,117.701686 C74.8547221,118.057331 74.3244846,117.620019 74.3244846,117.620019 C74.3244846,117.620019 73.7177452,118.141633 73.2798376,117.620019 C72.4515064,116.624212 73.0186759,115.093619 73.0186759,115.093619 C73.0186759,115.093619 73.1927837,116.750664 74.2427067,116.834965 L74.941776,115.617867 L75.5432394,116.9219 L76.1552548,115.617867 L76.8516861,116.834965 C77.8963331,116.750664 78.0730789,115.093619 78.0730789,115.093619 C78.0730789,115.093619 78.6402484,116.624212 77.8066412,117.620019 M75.3875976,111.908617 L75.3875976,111.879639 C72.1718787,111.718939 70.8871739,108.510227 70.7262561,105.783612 C70.5653383,103.054363 71.1245937,102.005868 72.6546322,101.926835 C74.1820327,101.845168 74.902206,103.773557 74.983984,104.577052 C75.0631239,105.377913 75.3875976,106.097107 75.3875976,106.097107 L75.3875976,106.131355 C75.3875976,106.131355 75.7094332,105.404257 75.7938492,104.606031 C75.8677131,103.80517 76.5931624,101.876781 78.1179249,101.961083 C79.6479634,102.034846 80.2072189,103.080707 80.051577,105.807322 C79.8880212,108.536571 78.6033164,111.747918 75.3875976,111.908617 M81.08831,98.4573164 C80.4446386,97.4140898 79.5609095,97.1743584 79.5609095,97.1743584 C79.5609095,97.1743584 79.7191893,96.3734976 80.122803,96.0468307 C80.5211406,95.728067 80.7664743,95.4883356 81.2465899,95.6464003 C81.2465899,95.6464003 82.4468787,96.2075297 82.4468787,99.0210803 C82.4468787,101.183931 81.2465899,101.911029 81.2465899,101.911029 C81.2465899,101.911029 81.7293434,99.4979086 81.08831,98.4573164 M114.20573,68.1089061 C118.3553,67.5187981 122.742289,69.6605739 122.742289,69.6605739 C121.317771,63.1904615 114.036898,57.7741132 114.036898,57.7741132 C116.542996,57.1945429 120.62134,58.5012105 120.62134,58.5012105 C117.545435,51.9652378 113.445987,50.2370644 113.445987,50.2370644 C123.731539,25.7423145 118.524132,22.7759681 118.524132,22.7759681 C116.740845,23.1737642 105.47132,31.4695232 99.5331881,35.0259775 C93.5924178,38.5824319 90.2316091,38.7773782 90.2316091,38.7773782 C88.8466605,37.1993663 88.6197927,32.3652228 88.6197927,32.3652228 C86.4381688,33.7482884 83.4493177,39.0302817 83.4493177,39.0302817 C81.2202099,33.4743097 77.6747413,33.1766213 77.6747413,33.1766213 C77.970197,34.3594716 77.3001457,37.6920011 77.3001457,37.6920011 C76.1948248,35.7688813 69.7343691,31.9885021 69.7343691,31.9885021 C69.8873729,33.3952774 69.6631431,36.2140967 69.6631431,36.2140967 C66.5476682,32.507481 60.0951264,30.5817268 60.0951264,30.5817268 C61.1344974,33.1766213 61.2769493,37.3969471 61.2769493,37.3969471 C57.494061,36.4327528 43.8503383,27.9921012 39.7667182,25.0231204 C35.6910122,22.0646773 35.0605308,24.6384965 35.2451906,27.2491974 C36.0629698,39.006572 41.0857169,49.9578169 41.0857169,49.9578169 C35.0024949,53.5353465 32.2378736,58.2720168 32.2378736,58.2720168 C34.5487593,58.1139522 38.7827452,58.6540064 38.7827452,58.6540064 C32.1771996,61.9918046 28.1252356,68.8807884 28.1252356,68.8807884 C32.8709929,67.4740131 36.7092792,68.0641211 36.7092792,68.0641211 C36.7092792,68.0641211 30.9927388,71.7681024 28.7557169,80.682948 C26.7930469,88.5572013 29.0933806,96.6501107 29.0933806,96.6501107 C29.0933806,96.6501107 32.1402677,90.2195144 37.4980404,88.933922 C36.912405,93.238549 36.872835,99.9905434 40.6187914,106.260441 C40.6187914,106.260441 42.8373472,100.754522 45.7180404,99.6744141 C45.7180404,99.6744141 45.5360186,106.681946 49.8517824,111.708402 C49.8517824,111.708402 51.292129,106.858452 53.4500109,105.604472 C53.4500109,105.604472 55.0671033,111.350122 59.7442728,116.197438 C59.7442728,116.197438 60.6517439,113.692113 62.640794,111.45023 C62.7436759,111.660982 62.8386438,111.866466 62.9256977,112.069316 C62.9256977,112.069316 65.2260315,122.891475 67.8508389,124.864648 C70.4888363,126.832553 74.7597542,127.051209 74.7597542,127.051209 C74.7597542,127.051209 79.4685796,126.832553 82.096025,124.864648 C84.7208325,122.891475 87.0211662,112.069316 87.0211662,112.069316 C87.1609801,111.732112 87.3350879,111.387004 87.5118338,111.036627 C89.7725976,113.373349 90.8014166,116.197438 90.8014166,116.197438 C95.478586,111.350122 97.0983164,105.604472 97.0983164,105.604472 C99.2588363,106.858452 100.693907,111.708402 100.693907,111.708402 C105.012309,106.681946 104.832925,99.6744141 104.832925,99.6744141 C107.708342,100.754522 109.926898,106.260441 109.926898,106.260441 C113.641198,100.045866 113.641198,93.3465598 113.066115,89.0419329 C117.962238,89.4739762 121.433843,96.6211322 121.433843,96.6211322 C121.433843,96.6211322 125.385563,85.5249947 121.433843,77.2239668 C119.141423,72.4267051 114.20573,68.1089061 114.20573,68.1089061" id="Fill-20" fill="#2D2925"></path>
                <path d="M90.4874949,59.8985019 C89.8913074,60.2567818 91.2419621,57.9068875 91.2419621,57.9068875 C91.2419621,57.9068875 87.4485218,59.7746846 86.8523344,60.7757607 C86.6281046,61.1419438 86.240319,59.9511902 86.0424692,58.7788774 C85.8472574,57.6144679 81.3389198,66.866518 81.5394076,68.4260891 C83.2593819,65.1120006 87.6938556,62.5987728 93.2916861,60.4148464 C93.2916861,60.4148464 91.3026361,59.411136 90.4874949,59.8985019" id="Fill-22" fill="#C4CDD3"></path>
                <path d="M61.405156,108.568184 C61.2996361,108.418023 59.5321778,105.767806 58.244835,101.231351 C57.7277875,99.3951666 57.1658941,95.3645183 57.0445462,93.0304305 C53.9923832,93.0304305 52.3726528,96.6211322 52.3726528,96.6211322 C51.2910738,92.0346233 51.5337696,89.1420405 51.8582433,87.3611789 C48.7717863,87.4612865 46.4371585,90.3354285 46.4371585,90.3354285 C46.4371585,90.3354285 45.7064332,87.4165015 48.2309968,81.5312282 C49.9694371,77.4768702 53.3513498,75.3482665 55.7730315,74.5421368 C53.5228196,73.5147167 52.5599506,71.3281559 52.2592189,69.6816492 C51.6788594,66.459765 53.9448992,61.2778793 53.9448992,61.2778793 C57.6591996,64.8343337 62.5394949,66.4650338 66.0137375,69.1231542 C69.3323383,71.6679948 70.0762535,74.0257923 70.0762535,74.0257923 C70.0762535,74.0257923 70.0604255,74.0152547 70.0498736,74.0126203 C70.9230507,75.0479436 71.4928582,76.0305788 71.645862,76.5600953 C71.619482,76.5548265 71.5957401,76.5548265 71.5667221,76.5548265 C72.7670109,76.673375 74.2812214,77.1396657 75.3126784,78.5885915 L74.8905988,76.3282672 C74.6373511,74.0679429 71.9017478,70.9435319 71.9017478,70.9435319 C75.2414525,70.911919 73.9831277,66.754819 71.4189942,65.6615386 C66.0664974,63.3906767 62.360111,59.7578244 62.9325565,59.6945986 C69.2584743,61.082933 72.0310096,59.0781465 72.0310096,59.0781465 C72.0310096,59.0781465 70.5141611,58.4985761 69.7227619,57.9216402 C68.4090392,56.9758868 67.556966,55.8457246 67.556966,55.8457246 C70.7120109,56.0248646 74.2179095,54.6470678 75.2704705,52.4578726 C77.1223447,48.6037299 76.4021714,41.3643695 76.4021714,41.3643695 C76.4021714,41.3643695 74.2442895,37.7736678 72.0151816,36.4432904 C72.0151816,36.4432904 71.8252458,39.3911959 71.1261765,41.4881868 L70.9731727,41.9334022 C70.9731727,41.9334022 68.3008813,36.8858714 63.6922997,35.1076443 C63.6922997,35.1076443 63.9930315,38.371679 63.6922997,40.7479174 C63.6922997,40.7479174 53.3961958,38.4981307 41.5515873,29.4673711 C38.744758,27.3203265 37.9718248,27.0779607 37.784527,27.5284449 C36.5077362,30.6107053 42.3377105,48.0926542 43.0526078,48.8013107 C43.0526078,48.8013107 44.3610546,48.5352352 44.3505026,48.4641061 C44.2845526,47.7923314 42.5751303,35.189311 43.873025,34.8679129 C44.0181149,34.8336656 45.3423896,35.9611933 46.8249442,36.9649037 C48.3180507,37.9817862 49.9720751,38.8748514 50.1804769,39.2357657 C50.4020687,39.6256585 47.4422356,40.8770035 47.6717413,41.2695307 C48.062165,41.951843 55.6516836,43.8143713 56.0473832,44.5098558 C56.3850469,45.0946949 47.4053036,47.2549116 47.7429673,47.847654 C48.3681727,48.9383 49.9430571,48.4799126 50.5788145,49.5969027 L49.7953293,49.7259888 C39.9740648,51.2302372 37.1355796,56.688736 37.1355796,56.688736 C40.6546682,56.3093809 44.6855282,57.015403 44.6855282,57.015403 C38.2672805,59.9079858 34.3604063,65.060893 34.3604063,65.060893 C43.4324795,65.2294953 41.886613,65.8880979 41.886613,65.8880979 C33.4582112,72.4267051 32.0468825,78.8388605 31.1446874,81.7156369 C30.3796682,84.1656388 30.3981341,88.4281152 30.4218761,89.6373097 C32.6641739,87.4349424 36.1885385,85.3353171 41.1004897,86.1414468 C41.1004897,86.1414468 38.1617606,91.4129024 41.3985834,99.4952742 C41.3985834,99.4952742 44.2766386,94.2870444 48.4130186,93.7469902 C48.4130186,93.7469902 47.5741354,99.9115111 49.8533652,105.601838 C49.8533652,105.601838 51.4704576,101.112802 54.166491,100.214468 C54.166491,100.214468 54.7679544,102.337803 56.0579352,105.240924 C57.1368761,107.66985 59.321138,111.168348 59.321138,111.168348 C59.321138,111.168348 60.2338851,109.845874 61.405156,108.568184" id="Fill-24" fill="#C4CDD3"></path>
                <path d="M76.1433838,120.62878 C76.1301938,121.427006 75.4575045,122.225232 75.4469525,122.238404 C84.0705661,122.067168 83.9360282,114.640764 84.0969461,107.875598 C84.2684159,100.762689 86.8589294,96.3553202 85.4476008,98.8395694 C81.7385764,105.415058 82.3743338,109.927804 82.094706,113.658129 C81.8546483,116.901089 80.4037497,119.316843 76.2541797,119.316843 C76.000932,119.316843 75.7160282,119.311574 75.4232105,119.298402 C75.4469525,119.298402 75.4733325,119.301037 75.5023504,119.301037 C75.5023504,119.301037 76.1539358,119.972811 76.1433838,120.62878" id="Fill-26" fill="#C4CDD3"></path>
                <path d="" id="Fill-28" fill="#C4CDD3"></path>
                <path d="M67.55169,77.9457953 C72.2684294,78.9389681 71.9518697,83.9259074 71.9518697,83.9259074 C71.9518697,83.9259074 69.630432,82.4295622 67.8365937,82.8616055 C69.3033203,83.1382187 71.1815745,85.4565 71.8252458,87.2004798 C71.9782497,87.1741357 72.1312535,87.1477916 72.2868954,87.1477916 C74.1071136,87.1477916 75.4366643,88.080373 75.4287503,88.1014483 C75.1095526,86.9739205 75.779604,79.9558506 70.635509,78.2276773 C69.0342445,77.6902575 68.4855411,77.808806 67.55169,77.9457953 C67.55169,77.9457953 68.1584294,77.0158484 69.5038081,76.6602029 C68.1584294,77.0158484 67.55169,77.9457953 67.55169,77.9457953" id="Fill-30" fill="#C4CDD3"></path>
                <path d="M90.7605276,67.6189057 C90.7605276,67.6189057 91.1694172,68.8281002 89.9585764,69.3865952 C88.7503736,69.9503591 87.8666444,69.1468639 87.8666444,69.1468639 L86.8193594,69.8686924 C86.8193594,69.8686924 88.3599499,72.4846621 90.7605276,70.6721876 C93.0582234,68.9413798 92.0478703,66.7363781 92.0478703,66.7363781 L90.7605276,67.6189057 Z" id="Fill-32" fill="#FCD700"></path>
                <path d="M58.5764313,66.7366416 L59.8637741,67.6191691 C59.8637741,67.6191691 59.4601605,68.8283636 60.6710013,69.3868587 C61.8712901,69.9506225 62.7550193,69.1471273 62.7550193,69.1471273 L63.8102182,69.8689558 C63.8102182,69.8689558 62.2669897,72.4849256 59.8637741,70.672451 C57.5660783,68.9416433 58.5764313,66.7366416 58.5764313,66.7366416 M55.1523107,64.1496504 C55.6614442,64.897823 56.4739474,65.7355655 56.4000834,66.3915338 C56.1890436,68.2119115 56.3446855,71.4496022 59.4364185,72.5534202 C63.1559949,73.8837976 64.0977599,72.2662695 65.5855905,72.205678 C66.1527599,72.1793339 66.9362452,72.4375062 67.6907125,72.7641731 C68.8540693,73.2726143 69.9330103,73.9338514 70.0490822,74.0128837 C70.0596341,74.0128837 70.0754621,74.0260558 70.0754621,74.0260558 C70.0754621,74.0260558 69.3315469,71.6682583 66.0129461,69.1207832 C62.5387035,66.4652973 57.6584082,64.8319627 53.9441078,61.2781428 C53.9441078,61.2781428 53.9493838,61.3044869 53.9546598,61.3150245 C54.0100578,61.5047021 54.4796213,63.1538431 55.1523107,64.1496504" id="Fill-34" fill="#2D2925"></path>
                <path d="M59.8632465,70.6727145 C62.2664621,72.485189 63.8123286,69.8692193 63.8123286,69.8692193 L62.7571297,69.1473907 C62.7571297,69.1473907 61.8734005,69.950886 60.6731117,69.3871221 C59.4596329,68.8286271 59.8632465,67.6194326 59.8632465,67.6194326 L58.5759037,66.736905 C58.5759037,66.736905 57.5655507,68.9419067 59.8632465,70.6727145" id="Fill-36" fill="#FCD700"></path>
                <path d="M78.1166059,101.960292 C76.5944814,101.875991 75.8690321,103.80438 75.7925302,104.607875 C75.7107522,105.403467 75.3862786,106.130564 75.3862786,106.130564 L75.3862786,106.096317 C75.3862786,106.096317 75.0644429,105.377123 74.982665,104.576262 C74.903525,103.772767 74.1807137,101.844378 72.6533132,101.926045 C71.1259127,102.005077 70.5666573,103.053573 70.7249371,105.782822 C70.8858549,108.509437 72.1705597,111.720784 75.3862786,111.878848 L75.3862786,111.907827 C78.6019974,111.747128 79.8867022,108.535781 80.050258,105.806532 C80.2058999,103.079917 79.6466444,102.034056 78.1166059,101.960292" id="Fill-38" fill="#CF1F2D"></path>
                <path d="M112.356494,68.994068 L110.528361,67.139443 C110.528361,67.139443 109.470524,66.0672378 109.185621,65.7695494 C110.272476,65.7142268 114.783451,65.5429901 119.130871,66.2358401 L119.370929,66.2753563 L119.246943,66.0646034 C117.577091,63.1219668 111.7946,57.7714788 109.106481,56.0564775 C111.62313,55.6165309 116.231712,55.6981977 116.281834,55.6981977 L116.49815,55.7008321 L116.382078,55.5190577 C114.147694,51.9046464 109.96383,50.1553977 109.314883,49.8998599 C114.590877,41.6409826 117.155011,28.4294133 117.181391,28.2950584 L117.181391,28.2897896 C117.181391,27.9341441 117.004645,27.4678535 116.513978,27.2386597 C115.809632,26.9040896 114.772899,27.7181225 111.288105,30.5869956 C110.829093,30.916297 100.089806,38.6614642 93.0358004,41.0166273 L90.2184191,42.0703915 L88.7437786,42.631521 L88.7727965,42.8580803 C91.6218338,43.1926504 94.0778094,44.5256622 96.6735988,45.9377063 L100.498695,47.8713637 L100.627957,47.6816861 C100.627957,47.6816861 96.7606528,43.869694 96.4493691,43.5641023 C99.5252741,43.2005537 102.849151,42.6025425 105.85383,41.8517354 L106.01211,41.8122193 C106.01211,41.8122193 104.371275,39.2384001 104.271031,39.0856043 C108.705505,34.8968914 112.010916,32.0912441 112.293182,31.8778568 C114.32444,30.031135 114.722777,29.9099521 114.799279,29.9152209 C114.725415,29.9573715 114.725415,29.9573715 114.643637,30.3604363 C113.701872,34.8995258 111.45166,43.5219518 106.938047,50.2923871 L106.864183,50.4056667 L106.985531,50.4662582 C109.773894,51.7755602 111.718098,53.5590562 112.314286,54.1438954 C111.121911,54.0938416 106.444741,53.9621211 103.727604,54.8657239 L103.458528,54.9579283 L104.321153,55.3820684 C104.379189,55.4215845 111.588836,60.2847065 114.830935,63.6857306 C114.543393,63.6778274 114.163522,63.662021 114.163522,63.662021 C112.26944,63.5961607 109.40985,63.4907843 107.86926,63.7463221 L103.434786,64.3864839 L107.259883,67.5108949 L109.372918,69.2206274 C114.609343,73.6806845 118.06512,79.3710115 120.244106,87.1346196 L120.697841,89.9244604 L120.929985,89.9060195 C120.937899,89.6557505 120.943175,89.4054815 120.943175,89.1604813 C120.943175,80.6223565 118.054568,73.8387492 112.356494,68.994068" id="Fill-40" fill="#256092"></path>
                <rect id="Rectangle" x="0" y="0" width="150" height="150"></rect>
            </g>
        </g>
    </g>
</svg>