<?xml version="1.0" encoding="UTF-8" standalone="no"?>
<svg width="150px" height="150px" viewBox="0 0 150 150" version="1.1" xmlns="http://www.w3.org/2000/svg" xmlns:xlink="http://www.w3.org/1999/xlink">
    <!-- Generator: Sketch 39.1 (31720) - http://www.bohemiancoding.com/sketch -->
    <title>POR</title>
    <desc>Created with Sketch.</desc>
    <defs>
        <polygon id="path-1" points="94.3228298 99.6728319 0 99.6728319 0 0.0467841252 94.3228298 0.0467841252"></polygon>
    </defs>
    <g id="Page-1" stroke="none" stroke-width="1" fill="none" fill-rule="evenodd">
        <g id="POR">
            <g id="Page-1">
                <g id="Group-3" transform="translate(28.000000, 25.177636)">
                    <mask id="mask-2" fill="white">
                        <use xlink:href="#path-1"></use>
                    </mask>
                    <g id="Clip-2"></g>
                    <path d="M74.993662,19.4203813 L94.3228298,0.0467841252 L42.7992707,0.0467841252 L20.7786204,17.327041 C18.6667937,19.0312146 16.7241638,20.9393868 15.0039963,22.9919273 C8.77191414,30.4206175 5.34097901,39.8484946 5.34097901,49.5431393 C5.34097901,50.7702698 5.39737794,52.009954 5.50390926,53.2308076 C6.42822512,63.6441553 11.4320638,73.4203995 19.3153814,80.3155547 L-0.00125330964,99.6734596 L51.2653773,99.6734596 L73.2797611,82.3900643 C75.3790547,80.695306 77.3248179,78.7902723 79.0575185,76.725178 C85.2864674,69.2933494 88.7174025,59.8623338 88.7174025,50.1708275 C88.7174025,48.9436971 88.6610036,47.7008744 88.5544722,46.4894361 C87.6395562,36.1608263 82.7265824,26.390859 74.993662,19.4203813" id="Fill-1" fill="#FEFEFE" mask="url(#mask-2)"></path>
                </g>
                <path d="M100.694152,44.6821273 L118.544415,26.7930128 L110.297637,26.7930128 L95.7091131,39.3781617 L108.355007,26.7930128 L100.44349,26.7930128 L86.3218239,39.4126846 L99.0021841,26.7930128 L91.444727,26.7930128 L76.83427,39.3938539 L89.4926973,26.7930128 L81.9853726,26.7930128 L67.3373162,39.4283768 L80.0333428,26.7930128 L71.3385072,26.7930128 L49.7627818,43.7280412 C47.7449533,45.3568921 45.8712554,47.1897417 44.2043536,49.1795134 C38.207267,56.3288823 34.9079294,65.3989772 34.9079294,74.7201474 C34.9079294,75.9033397 34.961195,77.0959473 35.0645931,78.2697243 C35.9983088,88.8117481 41.1932772,98.6256535 49.6343176,105.388994 L31.7809218,123.281247 L40.3942923,123.281247 L54.9828165,110.69296 L42.3400555,123.281247 L49.8066477,123.281247 L64.4359044,110.661575 L51.7555442,123.281247 L59.2722687,123.281247 L73.8827258,110.674129 L61.2211652,123.281247 L68.8600874,123.281247 L83.5050105,110.642745 L70.8152504,123.281247 L78.7267675,123.281247 L100.296226,106.346219 C102.320321,104.714229 104.190886,102.88138 105.857788,100.894746 C111.851741,93.7422391 115.151079,84.6721442 115.151079,75.3478356 C115.151079,74.1677817 115.097813,72.9720357 114.994415,71.8045356 C114.060699,61.2625118 108.865731,51.4486064 100.694152,44.6821273" id="Fill-4" fill="#051821"></path>
                <path d="M71.7298531,84.5594742 L74.8662605,81.4210331 C71.2849282,80.3100249 69.2639664,77.8620408 69.2639664,74.7204612 C69.2639664,73.0884718 69.9532867,71.6165429 71.0561992,70.5745805 L111.820095,29.7277691 L109.551605,29.7277691 L71.1815302,64.360467 L67.8978589,67.3231555 C65.9520957,69.1873895 64.7332521,71.8142647 64.7332521,74.7204612 C64.7332521,75.3983645 64.7990509,76.0574372 64.9243818,76.6976792 C65.6450349,80.3665168 68.6780442,83.4735736 71.7298531,84.5594742" id="Fill-6" fill="#C4CDD3"></path>
                <path d="M66.9854495,89.313271 L70.0748578,86.2219065 C65.2809484,83.7770608 62.623932,79.7221949 62.623932,74.7195197 C62.623932,71.370803 63.9681066,68.3296535 66.1425988,66.1044988 L102.432179,29.7268275 L100.329752,29.7268275 L66.3681945,59.774263 C65.9013367,60.1540144 63.0093247,62.7965818 62.623932,63.2579327 C59.8165184,66.2582824 58.0932177,70.2911793 58.0932177,74.7195197 C58.0932177,75.50413 58.1558831,76.2730481 58.2718143,77.0262739 C59.045733,82.3992852 62.395203,86.9374711 66.9854495,89.313271" id="Fill-8" fill="#C4CDD3"></path>
                <path d="M62.1495543,94.1587103 L65.2859616,91.0202691 C59.4643384,87.4236156 55.9864042,81.5861151 55.9864042,74.7223443 C55.9864042,69.6537619 57.9822997,65.0402534 61.2252384,61.6350448 L93.0467701,29.7265137 L91.1198065,29.7265137 L61.5604988,55.1886867 C60.6205165,55.9419125 58.1170305,58.2674974 57.3431118,59.1933375 C53.6834477,63.3266645 51.4525566,68.7687215 51.4525566,74.7223443 C51.4525566,75.6136616 51.5120888,76.4924251 51.6248866,77.352358 C52.4489377,84.4326812 56.4595285,90.5400876 62.1495543,94.1587103" id="Fill-10" fill="#C4CDD3"></path>
                <path d="M57.3086458,99.0057188 L60.4920523,95.8170626 C53.6395819,91.074878 49.3438631,83.4453276 49.3438631,74.7204612 C49.3438631,67.9351515 51.9883464,61.7524225 56.3091314,57.16716 L83.6563476,29.7246306 L81.8985809,29.7246306 L56.7477898,50.5984026 C55.3378164,51.7313799 53.2228564,53.7431207 52.0604117,55.1271732 C47.5453638,60.3997543 44.8131488,67.2446944 44.8131488,74.7204612 C44.8131488,75.721624 44.8632811,76.7070945 44.9698125,77.6768728 C45.8471292,86.464508 50.5219741,94.1379966 57.3086458,99.0057188" id="Fill-12" fill="#C4CDD3"></path>
                <path d="M38.3178716,78.0067229 C39.248454,88.5016701 44.5938196,97.7412408 52.4708706,103.851786 L55.7012762,100.616053 C47.8179586,94.7220604 42.7075886,85.3098755 42.7075886,74.7207751 C42.7075886,66.2155996 46.0037929,58.4667884 51.3930243,52.6951952 L74.2690585,29.7249445 L72.6836218,29.7249445 L51.9350808,46.013454 C50.0613829,47.5230442 48.3318156,49.2178024 46.7839782,51.0663442 C41.4135464,57.4719026 38.1706077,65.7228643 38.1706077,74.7207751 C38.1706077,75.8286448 38.2238733,76.9270992 38.3178716,78.0067229" id="Fill-14" fill="#C4CDD3"></path>
                <path d="M79.0046889,65.5113334 L75.8714148,68.6497745 C79.4527471,69.7576443 81.4737089,72.2087668 81.4737089,75.3472079 C81.4737089,76.9823358 80.7812553,78.4574031 79.6783428,79.4962271 L38.9175802,120.346177 L41.1923372,120.346177 L79.5561452,85.7103406 L82.8366831,82.7476521 C84.7887129,80.8834181 86.0044232,78.2565429 86.0044232,75.3472079 C86.0044232,74.6755815 85.9386245,74.0133704 85.8132935,73.3731285 C85.0926405,69.7042908 82.0564979,66.6003725 79.0046889,65.5113334" id="Fill-16" fill="#E0393D"></path>
                <path d="M83.7503459,60.7591058 L80.6609376,63.8504704 C85.454847,66.295316 88.1181299,70.3470435 88.1181299,75.3465802 C88.1181299,78.7015738 86.7708221,81.7427233 84.5963299,83.9647396 L48.3067494,120.345549 L50.406043,120.345549 L84.3676008,90.2949754 C84.8407252,89.9183624 87.7296039,87.275795 88.1181299,86.8144442 C90.9255435,83.8140944 92.645711,79.7780591 92.645711,75.3465802 C92.645711,74.5651084 92.5830455,73.7930519 92.4639811,73.0461029 C91.6931957,67.6699532 88.3437257,63.1317673 83.7503459,60.7591058" id="Fill-18" fill="#E0393D"></path>
                <path d="M88.5893744,55.9105281 L85.452967,59.0521077 C91.2745902,62.6456228 94.7525245,68.4862618 94.7525245,75.3468941 C94.7525245,80.418615 92.7566289,85.028985 89.5136902,88.4373321 L57.6921586,120.345863 L59.6222554,120.345863 L89.1784299,94.8805517 C90.1152788,94.1304643 92.6187648,91.801741 93.3926835,90.8759008 C97.0554809,86.7425739 99.2863721,81.3036554 99.2863721,75.3468941 C99.2863721,74.4587152 99.2237066,73.5799517 99.1171753,72.7168804 C98.2899909,65.6396956 94.2794001,59.5322892 88.5893744,55.9105281" id="Fill-20" fill="#E0393D"></path>
                <path d="M93.4287162,51.064775 L90.2453097,54.2534312 C97.0977801,58.9956158 101.393499,66.6251662 101.393499,75.3468941 C101.393499,82.1353423 98.742749,88.3180713 94.4282306,92.9064723 L67.0778811,120.345863 L68.8387811,120.345863 L93.986439,99.4720911 C95.3995456,98.3359754 97.5145056,96.3273731 98.673817,94.9401821 C103.191998,89.6707394 105.924213,82.8257993 105.924213,75.3468941 C105.924213,74.3488698 105.870948,73.3633993 105.76755,72.3904825 C104.890233,63.6028473 100.209121,55.9324972 93.4287162,51.064775" id="Fill-22" fill="#E0393D"></path>
                <path d="M112.41949,72.0640847 C111.488908,61.5691375 106.143542,52.3327052 98.2664914,46.2190219 L95.0360858,49.4547547 C102.91627,55.3487472 108.032907,64.7640706 108.032907,75.3500325 C108.032907,83.8583465 104.727303,91.6008807 99.3443377,97.3787509 L76.4683035,120.345863 L78.0537402,120.345863 L98.799148,104.057354 C100.675979,102.547763 102.405546,100.853005 103.953384,99.0076018 C109.323816,92.6020435 112.563621,84.3510817 112.563621,75.3500325 C112.563621,74.2453012 112.513489,73.1468468 112.41949,72.0640847" id="Fill-24" fill="#E0393D"></path>
                <rect id="Rectangle" x="0" y="0" width="150" height="150"></rect>
            </g>
        </g>
    </g>
</svg>